<svg width="306" height="66" viewBox="0 0 306 66" fill="none" xmlns="http://www.w3.org/2000/svg">
<path opacity="0.4" d="M0 65.9379H305.764C305.764 65.9379 297.602 64.117 291.211 62.6075C279.697 59.8522 284.508 42.7932 260.548 51.2029C257.145 46.5807 252.248 43.2798 246.689 41.8605C241.131 40.4411 235.253 40.9908 230.053 43.4162C230.747 39.4293 230.034 35.3251 228.036 31.8067C226.039 28.2882 222.881 25.5745 219.104 24.1303C215.328 22.6861 211.167 22.6014 207.334 23.8906C203.502 25.1798 200.237 27.7627 198.098 31.1969C198.315 25.1546 196.675 19.1911 193.401 14.1102C190.127 9.02925 185.375 5.07528 179.787 2.78122C159.824 -6.05975 144.456 8.48353 140.674 14.3775C140.674 14.3775 130.789 -2.39399 105.991 3.42812C81.1924 9.25022 84.1126 36.9711 84.1126 36.9711C84.1126 36.9711 74.8732 27.0759 63.9342 34.5752C51.966 42.6015 59.7214 55.4198 59.7214 55.4198C59.7214 55.4198 37.8435 58.3668 0 65.9379Z" fill="url(#paint0_linear_6_679)"/>
<defs>
<linearGradient id="paint0_linear_6_679" x1="152.882" y1="65.9379" x2="152.882" y2="0.00194932" gradientUnits="userSpaceOnUse">
<stop stop-color="white" stop-opacity="0"/>
<stop offset="0.06" stop-color="white" stop-opacity="0.08"/>
<stop offset="0.33" stop-color="white" stop-opacity="0.4"/>
<stop offset="0.57" stop-color="white" stop-opacity="0.66"/>
<stop offset="0.76" stop-color="white" stop-opacity="0.84"/>
<stop offset="0.91" stop-color="white" stop-opacity="0.96"/>
<stop offset="1" stop-color="white"/>
</linearGradient>
</defs>
</svg>
