<svg width="1728" height="516" viewBox="0 0 1728 516" fill="none" xmlns="http://www.w3.org/2000/svg">
<g clip-path="url(#clip0_6_567)">
<path d="M1068.84 462.702C1071.21 460.809 1112.24 452.269 1115.82 451.323C1119.41 450.376 1135.74 435.436 1137.82 433.769C1139.9 432.102 1143.17 383.497 1143.17 381.603C1143.17 379.71 1177.65 355.057 1180.61 355.057C1183.58 355.057 1184.73 331.331 1184.73 328.491C1184.73 325.651 1189.49 317.111 1191.88 317.111C1194.27 317.111 1209.71 314.745 1212.68 312.357C1215.65 309.97 1229.94 287.231 1232.9 287.231C1235.87 287.231 1260.25 288.178 1260.25 288.178C1260.25 288.178 1266.21 317.111 1266.21 322.791C1266.21 328.47 1282.25 335.611 1284.74 339.397C1287.23 343.184 1288.24 381.562 1288.24 381.562C1288.24 381.562 1310.9 384.402 1313.8 386.789C1316.71 389.176 1321.52 408.602 1321.52 410.969C1321.52 413.335 1344.71 422.348 1347.1 424.242C1349.49 426.135 1355.34 478.301 1355.34 478.301H1037.93C1036.14 478.28 1066.46 464.595 1068.84 462.702Z" fill="#F06082"/>
<path opacity="0.4" d="M1068.84 462.702C1071.21 460.809 1112.24 452.269 1115.82 451.323C1119.41 450.376 1135.74 435.436 1137.82 433.769C1139.9 432.102 1143.17 383.497 1143.17 381.603C1143.17 379.71 1177.65 355.057 1180.61 355.057C1183.58 355.057 1184.73 331.331 1184.73 328.491C1184.73 325.651 1189.49 317.111 1191.88 317.111C1194.27 317.111 1209.71 314.745 1212.68 312.357C1215.65 309.97 1229.94 287.231 1232.9 287.231C1235.87 287.231 1260.25 288.178 1260.25 288.178C1260.25 288.178 1266.21 317.111 1266.21 322.791C1266.21 328.47 1282.25 335.611 1284.74 339.397C1287.23 343.184 1288.24 381.562 1288.24 381.562C1288.24 381.562 1310.9 384.402 1313.8 386.789C1316.71 389.176 1321.52 408.602 1321.52 410.969C1321.52 413.335 1344.71 422.348 1347.1 424.242C1349.49 426.135 1355.34 478.301 1355.34 478.301H1037.93C1036.14 478.28 1066.46 464.595 1068.84 462.702Z" fill="url(#paint0_linear_6_567)"/>
<path d="M-149.641 448.092C-144.389 442.947 75.8337 364.235 79.4996 362.177C83.1656 360.12 94.1839 354.461 95.2343 349.316C96.2846 344.171 109.919 290.668 108.333 283.98C106.747 277.292 107.282 259.286 107.282 257.228C107.282 255.17 115.15 240.766 115.15 239.222V169.771C115.15 161.539 112.596 144.048 112.596 141.99C112.596 139.932 121.452 128.1 123.017 128.1C124.582 128.1 141.367 136.331 142.417 139.932C143.468 143.533 147.154 154.851 147.154 154.851C146.68 157.378 145.797 159.811 144.539 162.054C141.923 167.713 148.658 241.28 147.69 247.968C146.722 254.656 150.82 279.35 151.809 283.98C152.797 288.61 162.292 296.841 162.292 296.841V229.448C162.292 217.615 160.232 93.1167 160.232 93.1167C160.232 93.1167 161.797 51.9601 163.898 47.8445C165.999 43.7288 178.047 40.1276 178.047 38.0698C178.047 36.012 190.116 33.9541 191.681 24.6939C193.246 15.4337 201.649 3.08674 207.415 4.11565C213.182 5.14457 230.482 0 234.189 0C237.896 0 265.081 10.8036 265.081 10.8036C265.081 10.8036 268.747 55.5613 270.313 55.5613C271.878 55.5613 274.432 32.4108 274.432 32.4108C274.432 32.4108 286.789 33.6866 289.631 36.5264C292.473 39.3662 298.034 83.8564 298.034 87.4576C298.034 91.0588 315.333 95.6889 316.899 98.7757C318.464 101.862 318.958 178.516 317.949 183.147C316.94 187.777 328.432 197.037 328.432 199.095C328.432 201.153 332.098 208.355 335.249 211.442C338.4 214.528 338.4 275.749 338.4 286.552C338.4 297.356 359.118 347.505 363.114 351.374C367.109 355.243 384.594 357.033 394.006 367.322C403.418 377.611 485.242 407.964 494.139 413.109C503.036 418.253 549.211 424.941 556.542 426.485C563.874 428.028 584.861 439.346 600.06 447.063C615.259 454.78 639.396 446.548 644.112 445.005C648.829 443.462 684.479 437.803 688.165 437.803C691.852 437.803 705.98 428.542 707.566 425.97C709.152 423.398 727.481 424.941 730.632 425.97C733.783 426.999 739.014 417.224 740.6 414.138C742.186 411.051 750.548 388.929 750.548 385.328C750.548 381.727 752.133 362.177 752.133 359.605C752.133 357.033 760.516 353.946 760.516 353.946C761.527 350.065 762.216 346.108 762.575 342.114C762.575 338.512 767.806 336.969 769.907 336.969C772.008 336.969 771.493 313.819 771.493 311.246C771.493 308.674 778.31 300.443 778.31 300.443C778.31 300.443 793.509 297.356 795.074 298.899C796.639 300.443 798.225 327.709 798.225 329.767C798.225 331.824 802.941 348.287 805.042 350.345C807.143 352.403 809.161 406.935 809.161 408.479C809.161 410.022 826.461 419.797 830.127 423.398C833.793 426.999 849.013 431.629 857.395 435.745C865.777 439.86 898.811 452.722 901.962 454.265L934.049 469.843C947.251 471.736 973.633 463.834 995.505 463.834C1017.38 463.834 1067.59 464.472 1074.98 465.11C1082.37 465.748 1102.25 468.588 1111 472.107C1119.75 475.625 1145.11 489.166 1159.59 494.208C1174.06 499.249 1215.19 516.062 1217.83 516.062H-143.359C-143.359 516.062 -154.892 453.236 -149.641 448.092Z" fill="#F06082"/>
<path opacity="0.4" d="M-149.641 448.092C-144.389 442.947 75.8337 364.235 79.4996 362.177C83.1656 360.12 94.1839 354.461 95.2343 349.316C96.2846 344.171 109.919 290.668 108.333 283.98C106.747 277.292 107.282 259.286 107.282 257.228C107.282 255.17 115.15 240.766 115.15 239.222V169.771C115.15 161.539 112.596 144.048 112.596 141.99C112.596 139.932 121.452 128.1 123.017 128.1C124.582 128.1 141.367 136.331 142.417 139.932C143.468 143.533 147.154 154.851 147.154 154.851C146.68 157.378 145.797 159.811 144.539 162.054C141.923 167.713 148.658 241.28 147.69 247.968C146.722 254.656 150.82 279.35 151.809 283.98C152.797 288.61 162.292 296.841 162.292 296.841V229.448C162.292 217.615 160.232 93.1167 160.232 93.1167C160.232 93.1167 161.797 51.9601 163.898 47.8445C165.999 43.7288 178.047 40.1276 178.047 38.0698C178.047 36.012 190.116 33.9541 191.681 24.6939C193.246 15.4337 201.649 3.08674 207.415 4.11565C213.182 5.14457 230.482 0 234.189 0C237.896 0 265.081 10.8036 265.081 10.8036C265.081 10.8036 268.747 55.5613 270.313 55.5613C271.878 55.5613 274.432 32.4108 274.432 32.4108C274.432 32.4108 286.789 33.6866 289.631 36.5264C292.473 39.3662 298.034 83.8564 298.034 87.4576C298.034 91.0588 315.333 95.6889 316.899 98.7757C318.464 101.862 318.958 178.516 317.949 183.147C316.94 187.777 328.432 197.037 328.432 199.095C328.432 201.153 332.098 208.355 335.249 211.442C338.4 214.528 338.4 275.749 338.4 286.552C338.4 297.356 359.118 347.505 363.114 351.374C367.109 355.243 384.594 357.033 394.006 367.322C403.418 377.611 485.242 407.964 494.139 413.109C503.036 418.253 549.211 424.941 556.542 426.485C563.874 428.028 584.861 439.346 600.06 447.063C615.259 454.78 639.396 446.548 644.112 445.005C648.829 443.462 684.479 437.803 688.165 437.803C691.852 437.803 705.98 428.542 707.566 425.97C709.152 423.398 727.481 424.941 730.632 425.97C733.783 426.999 739.014 417.224 740.6 414.138C742.186 411.051 750.548 388.929 750.548 385.328C750.548 381.727 752.133 362.177 752.133 359.605C752.133 357.033 760.516 353.946 760.516 353.946C761.527 350.065 762.216 346.108 762.575 342.114C762.575 338.512 767.806 336.969 769.907 336.969C772.008 336.969 771.493 313.819 771.493 311.246C771.493 308.674 778.31 300.443 778.31 300.443C778.31 300.443 793.509 297.356 795.074 298.899C796.639 300.443 798.225 327.709 798.225 329.767C798.225 331.824 802.941 348.287 805.042 350.345C807.143 352.403 809.161 406.935 809.161 408.479C809.161 410.022 826.461 419.797 830.127 423.398C833.793 426.999 849.013 431.629 857.395 435.745C865.777 439.86 898.811 452.722 901.962 454.265L934.049 469.843C947.251 471.736 973.633 463.834 995.505 463.834C1017.38 463.834 1067.59 464.472 1074.98 465.11C1082.37 465.748 1102.25 468.588 1111 472.107C1119.75 475.625 1145.11 489.166 1159.59 494.208C1174.06 499.249 1215.19 516.062 1217.83 516.062H-143.359C-143.359 516.062 -154.892 453.236 -149.641 448.092Z" fill="url(#paint1_linear_6_567)"/>
<path d="M315.333 451.528C317.681 443.297 335.928 446.425 344.764 444.532C353.599 442.638 366.533 422.863 368.304 419.035C370.075 415.208 376.542 395.473 377.119 389.732C377.695 383.99 404.778 385.287 411.265 385.287C417.753 385.287 433.034 377.632 434.805 372.549C436.576 367.466 441.272 315.856 441.272 310.814C441.272 305.772 448.027 308.592 449.51 306.987C450.993 305.381 449.51 278.959 449.51 276.407C449.51 273.856 458.922 278.959 461.867 280.235C464.812 281.511 465.698 303.488 467.16 305.073C468.622 306.657 468.334 322.276 468.334 329.293C468.334 336.311 471.876 361.766 474.224 361.766C476.572 361.766 479.517 354.131 479.517 350.942C479.517 347.752 477.746 289.207 478.94 285.976C480.025 282.646 481.832 279.596 484.233 277.045C487.178 273.856 480.691 228.007 481.865 222.904C483.039 217.8 490.7 210.166 496.59 210.804C502.481 211.442 527.771 214.631 527.771 219.714C527.771 224.797 530.716 238.235 531.89 245.828C533.064 253.421 537.183 326.083 538.357 328.655C540.609 333.474 542.003 338.648 542.476 343.945C543.671 352.855 548.655 376.747 551.311 379.607C553.968 382.468 564.842 375.142 568.385 374.504C571.927 373.866 571.33 385.986 575.449 390.431C577.302 392.489 620.758 408.952 625.453 410.187C630.149 411.421 658.406 419.097 664.296 420.373C670.186 421.649 727.584 466.345 727.584 466.345L765.376 484.083C765.376 484.083 260.262 485.997 262.033 484.083C263.805 482.169 312.986 459.883 315.333 451.528Z" fill="#F06082"/>
<path opacity="0.4" d="M315.333 451.528C317.681 443.297 335.928 446.425 344.764 444.532C353.599 442.638 366.533 422.863 368.304 419.035C370.075 415.208 376.542 395.473 377.119 389.732C377.695 383.99 404.778 385.287 411.265 385.287C417.753 385.287 433.034 377.632 434.805 372.549C436.576 367.466 441.272 315.856 441.272 310.814C441.272 305.772 448.027 308.592 449.51 306.987C450.993 305.381 449.51 278.959 449.51 276.407C449.51 273.856 458.922 278.959 461.867 280.235C464.812 281.511 465.698 303.488 467.16 305.073C468.622 306.657 468.334 322.276 468.334 329.293C468.334 336.311 471.876 361.766 474.224 361.766C476.572 361.766 479.517 354.131 479.517 350.942C479.517 347.752 477.746 289.207 478.94 285.976C480.025 282.646 481.832 279.596 484.233 277.045C487.178 273.856 480.691 228.007 481.865 222.904C483.039 217.8 490.7 210.166 496.59 210.804C502.481 211.442 527.771 214.631 527.771 219.714C527.771 224.797 530.716 238.235 531.89 245.828C533.064 253.421 537.183 326.083 538.357 328.655C540.609 333.474 542.003 338.648 542.476 343.945C543.671 352.855 548.655 376.747 551.311 379.607C553.968 382.468 564.842 375.142 568.385 374.504C571.927 373.866 571.33 385.986 575.449 390.431C577.302 392.489 620.758 408.952 625.453 410.187C630.149 411.421 658.406 419.097 664.296 420.373C670.186 421.649 727.584 466.345 727.584 466.345L765.376 484.083C765.376 484.083 260.262 485.997 262.033 484.083C263.805 482.169 312.986 459.883 315.333 451.528Z" fill="url(#paint2_linear_6_567)"/>
<path d="M1303.69 429.139L1316.95 401.112L1323.4 396.09L1330.34 363.042C1332.98 361.387 1335.74 359.909 1338.58 358.617C1339.42 358.617 1346.71 352.814 1348.26 352.814C1349.8 352.814 1355.69 344.46 1354.85 342.525C1354 340.591 1355.69 328.12 1355.69 328.12C1355.69 328.12 1366.5 321.659 1369.72 318.037C1372.93 314.415 1370.85 301.039 1370.85 295.401C1370.85 289.763 1370.15 282.025 1370.85 281.243C1373.62 279.169 1376.93 277.959 1380.39 277.765C1383.76 278.095 1398.78 279.185 1399.74 280.297C1400.71 281.408 1402.55 307.686 1402.83 309.559C1404.73 314.29 1407.08 318.825 1409.86 323.099C1410.82 324.211 1414.61 328.45 1414.61 329.396C1414.61 329.828 1415.03 337.895 1415.52 346.785C1418.2 344.912 1419.95 343.348 1419.95 342.422C1419.95 338.307 1426.6 304.661 1430.76 300.566C1434.92 296.471 1466.55 291.532 1466.55 291.532C1466.55 291.532 1468.22 225.064 1471.54 218.5C1474.85 211.936 1497.34 199.609 1497.34 189.69C1497.34 179.772 1505.58 129.787 1505.58 129.787C1505.58 129.787 1539.71 128.141 1543.89 128.141C1548.07 128.141 1568.01 167.548 1572.17 171.664C1576.33 175.78 1597.97 179.895 1601.29 179.895C1604.6 179.895 1611.28 194.67 1611.28 199.589C1611.28 204.507 1612.94 245.56 1617.1 245.56C1621.26 245.56 1669.54 288.219 1669.54 291.512C1669.54 294.804 1674.13 378.908 1677.04 381.789C1679.94 384.669 1702.84 410.598 1707.93 412.141C1713.02 413.685 1770.35 428.604 1773.67 431.835C1776.98 435.066 1819.45 458.916 1816.92 458.916H1372.39C1372.39 458.916 1373.61 445.684 1375.3 429.16L1303.69 429.139Z" fill="#F06082"/>
<path opacity="0.4" d="M1303.69 429.139L1316.95 401.112L1323.4 396.09L1330.34 363.042C1332.98 361.387 1335.74 359.909 1338.58 358.617C1339.42 358.617 1346.71 352.814 1348.26 352.814C1349.8 352.814 1355.69 344.46 1354.85 342.525C1354 340.591 1355.69 328.12 1355.69 328.12C1355.69 328.12 1366.5 321.659 1369.72 318.037C1372.93 314.415 1370.85 301.039 1370.85 295.401C1370.85 289.763 1370.15 282.025 1370.85 281.243C1373.62 279.169 1376.93 277.959 1380.39 277.765C1383.76 278.095 1398.78 279.185 1399.74 280.297C1400.71 281.408 1402.55 307.686 1402.83 309.559C1404.73 314.29 1407.08 318.825 1409.86 323.099C1410.82 324.211 1414.61 328.45 1414.61 329.396C1414.61 329.828 1415.03 337.895 1415.52 346.785C1418.2 344.912 1419.95 343.348 1419.95 342.422C1419.95 338.307 1426.6 304.661 1430.76 300.566C1434.92 296.471 1466.55 291.532 1466.55 291.532C1466.55 291.532 1468.22 225.064 1471.54 218.5C1474.85 211.936 1497.34 199.609 1497.34 189.69C1497.34 179.772 1505.58 129.787 1505.58 129.787C1505.58 129.787 1539.71 128.141 1543.89 128.141C1548.07 128.141 1568.01 167.548 1572.17 171.664C1576.33 175.78 1597.97 179.895 1601.29 179.895C1604.6 179.895 1611.28 194.67 1611.28 199.589C1611.28 204.507 1612.94 245.56 1617.1 245.56C1621.26 245.56 1669.54 288.219 1669.54 291.512C1669.54 294.804 1674.13 378.908 1677.04 381.789C1679.94 384.669 1702.84 410.598 1707.93 412.141C1713.02 413.685 1770.35 428.604 1773.67 431.835C1776.98 435.066 1819.45 458.916 1816.92 458.916H1372.39C1372.39 458.916 1373.61 445.684 1375.3 429.16L1303.69 429.139Z" fill="url(#paint3_linear_6_567)"/>
</g>
<defs>
<linearGradient id="paint0_linear_6_567" x1="1196.64" y1="478.342" x2="1196.64" y2="287.231" gradientUnits="userSpaceOnUse">
<stop stop-color="#FFAFB6"/>
<stop offset="0.03" stop-color="#FFB5BB" stop-opacity="0.93"/>
<stop offset="0.16" stop-color="#FFCBCF" stop-opacity="0.65"/>
<stop offset="0.28" stop-color="#FFDDE0" stop-opacity="0.42"/>
<stop offset="0.38" stop-color="#FFECEE" stop-opacity="0.24"/>
<stop offset="0.48" stop-color="#FFF6F7" stop-opacity="0.11"/>
<stop offset="0.56" stop-color="#FFFDFD" stop-opacity="0.03"/>
<stop offset="0.61" stop-color="white" stop-opacity="0"/>
</linearGradient>
<linearGradient id="paint1_linear_6_567" x1="533.373" y1="516" x2="533.373" y2="0" gradientUnits="userSpaceOnUse">
<stop stop-color="white"/>
<stop offset="0.01" stop-color="white" stop-opacity="0.95"/>
<stop offset="0.07" stop-color="white" stop-opacity="0.75"/>
<stop offset="0.13" stop-color="white" stop-opacity="0.57"/>
<stop offset="0.19" stop-color="white" stop-opacity="0.42"/>
<stop offset="0.26" stop-color="white" stop-opacity="0.29"/>
<stop offset="0.33" stop-color="white" stop-opacity="0.18"/>
<stop offset="0.4" stop-color="white" stop-opacity="0.1"/>
<stop offset="0.49" stop-color="white" stop-opacity="0.04"/>
<stop offset="0.59" stop-color="white" stop-opacity="0.01"/>
<stop offset="0.75" stop-color="white" stop-opacity="0"/>
</linearGradient>
<linearGradient id="paint2_linear_6_567" x1="513.705" y1="484.927" x2="513.705" y2="210.763" gradientUnits="userSpaceOnUse">
<stop stop-color="white"/>
<stop offset="0.03" stop-color="white" stop-opacity="0.89"/>
<stop offset="0.08" stop-color="white" stop-opacity="0.71"/>
<stop offset="0.15" stop-color="white" stop-opacity="0.54"/>
<stop offset="0.21" stop-color="white" stop-opacity="0.39"/>
<stop offset="0.28" stop-color="white" stop-opacity="0.27"/>
<stop offset="0.35" stop-color="white" stop-opacity="0.17"/>
<stop offset="0.44" stop-color="white" stop-opacity="0.09"/>
<stop offset="0.53" stop-color="white" stop-opacity="0.04"/>
<stop offset="0.65" stop-color="white" stop-opacity="0.01"/>
<stop offset="0.86" stop-color="white" stop-opacity="0"/>
</linearGradient>
<linearGradient id="paint3_linear_6_567" x1="1560.32" y1="458.895" x2="1560.32" y2="177.158" gradientUnits="userSpaceOnUse">
<stop stop-color="#FFAFB6"/>
<stop offset="0.03" stop-color="#FFB5BB" stop-opacity="0.93"/>
<stop offset="0.16" stop-color="#FFCBCF" stop-opacity="0.65"/>
<stop offset="0.28" stop-color="#FFDDE0" stop-opacity="0.42"/>
<stop offset="0.38" stop-color="#FFECEE" stop-opacity="0.24"/>
<stop offset="0.48" stop-color="#FFF6F7" stop-opacity="0.11"/>
<stop offset="0.56" stop-color="#FFFDFD" stop-opacity="0.03"/>
<stop offset="0.61" stop-color="white" stop-opacity="0"/>
</linearGradient>
<clipPath id="clip0_6_567">
<rect width="1968" height="516" fill="white" transform="translate(-151)"/>
</clipPath>
</defs>
</svg>
