<svg width="1728" height="355" viewBox="0 0 1728 355" fill="none" xmlns="http://www.w3.org/2000/svg">
<path d="M1873 238.042C1873 238.042 1775.02 97.1288 1756.64 90.4844C1738.26 83.84 1726.02 83.4259 1709.69 83.4259C1693.36 83.4259 1536.54 99.2516 1521.62 87.1364C1506.71 75.0212 1440.96 82.563 1426.66 78.2312C1412.36 73.8994 1340.19 137.478 1315.69 143.139C1291.2 148.8 1234.05 172.944 1211.59 158.378C1189.12 143.812 1138.1 128.245 1123.74 128.245C1109.37 128.245 1025.74 140.516 1017.58 147.229C1009.41 153.943 989.001 175.291 960.424 179.502C931.847 183.713 825.757 213.57 807.378 210.29C788.999 207.011 716.67 184.403 714.93 182.971C713.19 181.538 705.921 179.709 702.872 179.709C699.823 179.709 694.363 183.368 691.366 182.557C688.369 181.745 670.851 180.123 664.357 179.312C657.863 178.501 626.823 159.621 620.329 158.809C607.375 157.187 571.616 128.349 549.705 130.575C533.686 132.197 499.959 121.842 492.965 121.031C485.972 120.22 443.219 138.29 436.226 134.614C429.232 130.938 415.986 141.258 411.042 139.532C406.099 137.806 389.735 126.192 383.224 126.192C376.712 126.192 340.16 134.044 327.069 132.422C313.978 130.799 276.462 133.181 265.747 131.645C255.033 130.109 225.595 124.983 217.62 120.376C209.645 115.768 163.429 107.052 156.281 99.8901C149.133 92.728 105.57 48.7025 98.008 47.6843C90.4462 46.666 73.7377 48.4609 70.2754 45.6305C66.8131 42.8002 29.9339 32.3245 26.1443 29.2526C22.3548 26.1806 -31.2157 14.3933 -40.6724 12.3396C-50.129 10.2858 -84.1661 9.78536 -94.8974 7.16212C-105.629 4.53888 -151 0 -151 0V355H1858.89L1873 238.042Z" fill="#73002D"/>
<path d="M1106.67 86.3943C1105.63 84.4613 1098.54 85.8765 1097.92 86.912C1097.18 89.5952 1096.9 92.3846 1097.09 95.1614C1097.3 97.0943 1097.5 110.521 1097.5 114.387C1097.5 118.253 1091.04 117.355 1091.04 117.355C1090.62 115.23 1090.4 113.068 1090.41 110.901C1090.41 107.294 1091.66 68.9808 1091.66 64.2003C1091.66 59.4198 1088.96 59.4198 1086.03 59.4198C1083.1 59.4198 1079.57 61.6288 1079.78 63.4237C1079.98 65.2185 1079.16 77.351 1079.36 83.029C1079.57 88.7069 1079.98 107.812 1079.98 107.812C1074.58 108.312 1072.41 106.258 1072.41 104.446C1072.41 102.634 1072.7 90.8987 1072.7 88.1891C1072.73 87.5803 1072.61 86.9732 1072.37 86.4137C1072.13 85.8543 1071.77 85.3572 1071.31 84.9599C1070.84 84.5625 1070.3 84.2755 1069.71 84.1204C1069.12 83.9653 1068.51 83.9461 1067.91 84.0644C1066.74 84.1692 1065.65 84.6993 1064.84 85.5546C1064.04 86.4099 1063.57 87.5311 1063.53 88.7068C1063.53 90.8986 1062.69 102.91 1063.53 107.294C1064.38 111.677 1066.24 112.834 1068.7 113.093C1071.17 113.351 1081.21 112.575 1081.21 112.575L1081.62 138.894L1090.23 139.791L1089.82 123.413C1089.82 123.413 1103.05 121.29 1105.32 119.961C1107.6 118.632 1106.79 108.864 1107.2 103.963C1107.61 99.0618 1107.72 88.3272 1106.67 86.3943Z" fill="#73002D"/>
<path d="M432.247 132.905C428.078 130.886 417.071 127.227 417.071 127.227C422.374 127.435 427.635 128.263 432.746 129.695C429.259 126.069 425.573 122.641 421.705 119.426C426.408 121.88 430.958 124.618 435.33 127.624C431.368 119.426 421.808 107.242 421.808 107.242C428.157 112.821 433.757 119.202 438.465 126.226C436.742 117.442 428.629 91.0713 428.629 91.0713C433.797 100.529 441.41 122.999 441.41 122.999C440.725 113.867 440.673 104.698 441.255 95.5583C441.893 99.8038 444.907 125.139 444.907 125.139C445.898 119.205 447.592 113.412 449.954 107.881C449.064 112.763 448.426 117.688 448.042 122.636C450.867 115.733 459.755 104.602 459.755 104.602C456.262 111.468 453.145 118.519 450.419 125.726C461.667 117.528 471.382 116.682 471.382 116.682C464.148 119.323 453.761 128.608 453.761 128.608C459.337 127.03 465.106 126.24 470.9 126.261C465.206 127.724 459.641 129.651 454.26 132.025L444.976 138.928L436.363 135.804C427.751 134.562 422.066 134.337 422.066 134.337C425.369 133.352 428.801 132.87 432.247 132.905Z" fill="#73002D"/>
<path d="M1128.59 130.178C1126.58 128.452 1121.03 125.087 1121.03 125.087C1123.91 125.907 1126.68 127.066 1129.28 128.539C1127.85 126.094 1126.28 123.731 1124.58 121.463C1126.84 123.424 1128.97 125.522 1130.97 127.745C1129.74 123.315 1128.16 118.992 1126.23 114.818C1128.96 118.726 1131.16 122.973 1132.78 127.451C1132.97 122.429 1132 106.931 1132 106.931C1133.32 113.254 1134.26 119.652 1134.81 126.088C1135.61 120.998 1136.76 115.969 1138.26 111.039C1138.05 113.438 1136.38 127.693 1136.38 127.693C1137.7 124.58 1139.39 121.637 1141.41 118.926C1140.28 121.473 1139.29 124.077 1138.43 126.727C1141.05 123.652 1143.99 120.864 1147.2 118.408C1144.39 121.715 1141.76 125.171 1139.33 128.763C1143.3 126.986 1147.65 126.233 1151.99 126.571C1147.68 127.072 1140.77 130.782 1140.77 130.782C1144.03 130.654 1147.3 130.979 1150.47 131.749C1147.16 131.797 1143.87 132.12 1140.62 132.715L1134.62 135.269L1130.28 132.422C1125.77 130.696 1122.65 129.747 1122.65 129.747C1124.64 129.585 1126.65 129.73 1128.59 130.178Z" fill="#73002D"/>
<path d="M998.836 162.882C995.391 162.986 986.779 164.194 986.779 164.194C990.618 162.759 994.579 161.673 998.612 160.949C995.407 159.935 992.146 159.105 988.846 158.464C992.626 158.442 996.404 158.632 1000.16 159.034C995.993 156.134 991.551 153.648 986.899 151.613C992.259 152.779 997.422 154.715 1002.23 157.36C999.491 152.976 989.19 140.602 989.19 140.602C994.564 144.364 1003.85 154.685 1003.85 154.685C1001.81 149.74 1000.24 144.615 999.146 139.377C1000.32 141.569 1006.74 154.909 1006.74 154.909C1006.49 151.168 1006.77 147.409 1007.55 143.743C1007.71 146.703 1008.07 149.649 1008.62 152.562C1009.52 147.851 1014.15 139.014 1014.15 139.014C1012.77 143.789 1011.67 148.641 1010.86 153.546C1014.71 148.969 1019.39 145.153 1024.64 142.293C1019.78 145.918 1013.75 154.167 1013.75 154.167C1017.55 151.638 1021.59 149.504 1025.81 147.799C1021.92 150.278 1018.19 152.992 1014.63 155.927L1002.14 163.366C995.701 165.195 991.464 166.817 991.464 166.817C993.768 165.235 996.24 163.915 998.836 162.882Z" fill="#73002D"/>
<path d="M485.369 42.0926C486.57 42.1804 487.696 42.707 488.535 43.5725C489.373 44.4379 489.865 45.5819 489.917 46.7868C490.141 49.2547 489.693 70.3787 489.693 73.5887C489.693 76.7987 494.137 77.6962 494.137 77.6962C494.137 77.6962 494.464 50.3075 494.137 44.1118C493.81 37.9161 496.893 33.5844 501.888 34.1711C506.883 34.7579 509.622 39.849 509.622 45.2336C509.622 50.6181 508.658 93.6772 508.658 93.6772C511.569 92.9351 513.429 91.9514 513.429 89.2073C513.429 86.4633 513.205 66.7718 512.912 64.045C512.62 61.3182 513.205 57.6249 516.478 57.6939C519.751 57.763 521.404 61.2837 521.473 65.1667C521.542 69.0498 521.112 85.0999 519.165 91.7443C517.219 98.3886 508.158 99.7175 508.158 99.7175L505.781 128.728H498.443L494.654 83.6675C491.957 83.6035 489.359 82.6353 487.276 80.9176C485.193 79.2 483.746 76.8321 483.164 74.1928C482.579 71.3624 481.976 57.09 481.442 50.8943C480.908 44.6986 482.906 42.0926 485.369 42.0926Z" fill="#73002D"/>
<path d="M511.293 129.177L509.708 128.556C512.092 125.034 515.169 122.039 518.752 119.754C515.967 122.646 513.469 125.802 511.293 129.177Z" fill="#73002D"/>
<path d="M514.394 110.193C513.449 114.939 512.094 119.593 510.346 124.103C513.256 119.342 516.656 114.9 520.491 110.849C516.584 116.54 513.006 122.452 509.777 128.556L508.658 128.124L508.193 127.935L507.504 127.676C507.504 127.676 512.516 116.458 514.394 110.193Z" fill="#73002D"/>
<path d="M502.887 125.726C502.433 121.629 501.597 117.585 500.39 113.645C502.558 117.602 504.005 121.915 504.661 126.381L502.887 125.726Z" fill="#73002D"/>
<path d="M505.902 123.551C506.64 118.886 507.129 114.185 507.366 109.468C507.634 112.515 507.703 115.577 507.572 118.633C508.785 113.595 509.728 108.497 510.397 103.359C510.424 108.141 510.09 112.917 509.398 117.649C510.725 112.471 512.206 106.327 512.93 101.84C512.346 110.679 510.81 119.428 508.348 127.935L507.366 127.555L506.763 127.313L506.108 127.054L505.678 126.899L505.471 126.813L504.351 126.364C504.217 119.579 503.682 112.808 502.749 106.086C504.401 111.782 505.458 117.636 505.902 123.551Z" fill="#73002D"/>
<path d="M502.336 123.448L500.614 123.603C501.124 119.379 502.502 115.307 504.661 111.643C503.514 115.495 502.736 119.448 502.336 123.448Z" fill="#73002D"/>
<path d="M496.48 105.154C497.799 109.806 498.709 114.564 499.201 119.375C499.619 113.808 500.624 108.3 502.198 102.945C501.31 109.814 500.815 116.729 500.717 123.655L499.511 123.775H498.288C498.288 123.775 497.651 111.643 496.48 105.154Z" fill="#73002D"/>
<path d="M493.327 124.345C491.056 120.914 488.473 117.702 485.61 114.749C489.343 117.292 492.597 120.476 495.222 124.155L493.327 124.345Z" fill="#73002D"/>
<path d="M494.981 120.98C493.499 116.482 491.774 112.069 489.813 107.76C491.442 110.353 492.898 113.051 494.171 115.837C492.961 110.795 491.478 105.823 489.727 100.943C491.932 105.188 493.809 109.596 495.343 114.128C494.189 108.951 492.707 102.755 491.295 98.4405C494.801 106.571 497.412 115.06 499.08 123.758L498.03 123.862H496.014L494.809 123.983C491.602 118.025 488.047 112.263 484.163 106.724C488.261 111.08 491.888 115.859 494.981 120.98Z" fill="#73002D"/>
<path d="M1082.93 138.548L1081.21 138.704C1081.73 134.481 1083.1 130.411 1085.26 126.744C1084.1 130.595 1083.33 134.548 1082.93 138.548Z" fill="#73002D"/>
<path d="M1077.11 120.255C1078.43 124.906 1079.34 129.665 1079.83 134.475C1080.25 128.908 1081.25 123.401 1082.83 118.046C1081.94 124.915 1081.44 131.83 1081.35 138.755L1080.14 138.876H1078.92C1078.92 138.876 1078.28 126.744 1077.11 120.255Z" fill="#73002D"/>
<path d="M1073.96 139.532C1071.68 136.102 1069.1 132.889 1066.24 129.937C1069.98 132.473 1073.23 135.659 1075.85 139.342L1073.96 139.532Z" fill="#73002D"/>
<path d="M1075.61 136.08C1074.13 131.583 1072.4 127.17 1070.44 122.861C1072.07 125.449 1073.52 128.141 1074.8 130.92C1073.58 125.887 1072.11 120.922 1070.37 116.044C1072.57 120.292 1074.44 124.699 1075.97 129.229C1074.82 124.052 1073.34 117.856 1071.92 113.541C1075.43 121.672 1078.04 130.161 1079.71 138.859L1078.66 138.963H1076.64L1075.44 139.083C1072.23 133.126 1068.68 127.363 1064.79 121.825C1068.89 126.181 1072.52 130.959 1075.61 136.08Z" fill="#73002D"/>
<path d="M1160.43 141.258L1158.93 140.464C1161.67 137.221 1165.06 134.578 1168.87 132.698C1165.79 135.275 1162.96 138.141 1160.43 141.258Z" fill="#73002D"/>
<path d="M1165.59 122.792C1164.15 127.41 1162.3 131.892 1160.06 136.184C1163.48 131.768 1167.34 127.72 1171.59 124.103C1167.08 129.338 1162.88 134.829 1159.01 140.55L1157.96 139.998L1157.52 139.756L1156.86 139.411C1156.86 139.411 1163.01 128.867 1165.59 122.792Z" fill="#73002D"/>
<path d="M1152.43 137.099C1152.42 132.986 1152.02 128.884 1151.25 124.845C1152.98 129.015 1153.96 133.464 1154.12 137.979L1152.43 137.099Z" fill="#73002D"/>
<path d="M1155.67 135.2C1156.91 130.654 1157.9 126.045 1158.65 121.394C1158.59 124.45 1158.33 127.5 1157.88 130.523C1159.61 125.645 1161.1 120.679 1162.32 115.647C1161.83 120.405 1160.98 125.119 1159.77 129.747C1161.67 124.776 1163.8 118.788 1164.94 114.422C1163.41 123.144 1160.94 131.674 1157.57 139.86L1156.64 139.36L1156.07 139.066L1155.45 138.738L1155.03 138.514L1154.83 138.41L1153.76 137.858C1154.36 131.099 1154.56 124.311 1154.36 117.528C1155.41 123.358 1155.85 129.28 1155.67 135.2Z" fill="#73002D"/>
<path d="M163.326 108.07L161.38 107.259C164.432 102.928 168.343 99.2733 172.869 96.5248C169.332 100.063 166.137 103.929 163.326 108.07Z" fill="#73002D"/>
<path d="M167.719 84.5649C166.429 90.4646 164.625 96.2395 162.327 101.823C166.07 95.9583 170.417 90.5035 175.298 85.5486C170.292 92.544 165.691 99.8217 161.518 107.346L160.139 106.776L159.571 106.535L158.71 106.172C158.71 106.172 165.186 92.3656 167.719 84.5649Z" fill="#73002D"/>
<path d="M152.957 103.756C152.483 98.6527 151.543 93.6037 150.149 88.6724C152.75 93.6654 154.441 99.0828 155.144 104.671L152.957 103.756Z" fill="#73002D"/>
<path d="M156.746 101.046C157.799 95.252 158.535 89.4043 158.951 83.5294C159.2 87.3336 159.2 91.1501 158.951 94.9543C160.59 88.7004 161.895 82.3634 162.861 75.9704C162.771 81.9282 162.23 87.8705 161.242 93.7463C162.964 87.3607 165.031 79.7154 166.048 74.141C165.1 85.1325 162.963 95.9883 159.674 106.517L158.469 106.017L157.728 105.706H157.625L156.815 105.361L156.281 105.137L156.109 105.016L154.714 104.446C154.704 95.9841 154.192 87.5299 153.18 79.1286C155.134 86.2888 156.329 93.6353 156.746 101.046Z" fill="#73002D"/>
<path d="M711.795 184.835H709.969C710.957 180.369 712.845 176.153 715.516 172.443C713.881 176.445 712.635 180.594 711.795 184.835Z" fill="#73002D"/>
<path d="M707.42 164.677C708.369 169.801 708.865 174.999 708.901 180.21C709.914 174.303 711.542 168.518 713.759 162.951C712.117 170.193 710.892 177.522 710.09 184.904H707.471C707.471 184.904 708.023 171.736 707.42 164.677Z" fill="#73002D"/>
<path d="M702.149 184.887C700.068 180.991 697.628 177.299 694.863 173.859C698.601 176.947 701.758 180.682 704.181 184.887H702.149Z" fill="#73002D"/>
<path d="M704.216 181.452C703.113 176.502 701.739 171.616 700.099 166.817C701.579 169.751 702.868 172.777 703.957 175.878C703.161 170.37 702.075 164.909 700.702 159.517C702.631 164.274 704.192 169.172 705.37 174.169C704.664 168.509 703.647 161.743 702.631 156.997C705.552 166.047 707.486 175.386 708.402 184.852H703.699C700.879 178.129 697.658 171.582 694.053 165.247C698.004 170.272 701.411 175.705 704.216 181.452Z" fill="#73002D"/>
<path d="M925.078 142.104C925.336 138.1 925.078 111.85 925.078 106.448C925.078 101.046 926.955 100.667 928.092 100.667C929.229 100.667 931.434 101.927 931.434 105.447C931.434 108.968 931.727 133.198 931.434 137.22C931.141 141.241 932.192 143.743 934.07 143.743C935.947 143.743 937.515 140.723 937.825 135.338C938.135 129.954 939.203 78.1967 939.203 71.1554C939.203 64.1141 941.718 64.1313 943.354 64.511C944.99 64.8907 946.351 67.0134 946.351 70.0336C946.351 73.0538 945.61 119.375 945.61 126.157C945.61 132.94 946.11 135.459 948.728 135.2C951.346 134.941 951.863 130.679 951.863 128.176C951.863 125.674 951.863 49.0995 952.001 43.8185C952.139 38.5375 956.256 39.2968 957.169 40.8155C958.082 42.3342 958.168 47.7188 957.926 57.763C957.685 67.8073 957.41 132.059 956.91 135.08C956.411 138.1 957.978 144.554 958.926 145.434C959.873 146.315 961.802 144.934 961.802 141.172C961.802 137.409 962.302 89.2937 962.439 84.9101C962.577 80.5265 967.607 81.2686 968.451 82.6493C969.295 84.03 969.708 85.911 969.708 92.6935C969.708 99.4759 968.882 137.03 968.882 144.468C968.882 151.906 967.349 152.165 965.041 154.478C962.732 156.79 957.858 155.513 955.549 158.343C953.241 161.174 952.983 186.336 952.983 193.257L940.253 192.256C940.253 192.256 941.373 152.942 940.253 151.44C939.134 149.939 933.363 150.439 930.469 150.439C927.576 150.439 924.837 146.125 925.078 142.104Z" fill="#73002D"/>
</svg>
