<svg width="1646" height="37" viewBox="0 0 1646 37" fill="none" xmlns="http://www.w3.org/2000/svg">
<g opacity="0.28">
<path d="M744.567 10.2546C1155.78 10.2546 1489.13 7.95901 1489.13 5.12729C1489.13 2.29556 1155.78 0 744.567 0C333.354 0 0 2.29556 0 5.12729C0 7.95901 333.354 10.2546 744.567 10.2546Z" fill="url(#paint0_linear_139_22)"/>
<path d="M1645.32 34.118C1645.32 32.7524 1436.38 31.7221 1178.56 31.7221C920.739 31.7221 711.798 32.8242 711.798 34.118C711.798 35.4118 920.739 36.514 1178.56 36.514C1436.38 36.514 1645.32 35.4837 1645.32 34.118Z" fill="url(#paint1_linear_139_22)"/>
</g>
<defs>
<linearGradient id="paint0_linear_139_22" x1="-0.0239364" y1="5.12727" x2="1489.13" y2="5.12727" gradientUnits="userSpaceOnUse">
<stop stop-color="white" stop-opacity="0"/>
<stop offset="0.06" stop-color="white" stop-opacity="0.08"/>
<stop offset="0.33" stop-color="white" stop-opacity="0.4"/>
<stop offset="0.57" stop-color="white" stop-opacity="0.66"/>
<stop offset="0.76" stop-color="white" stop-opacity="0.84"/>
<stop offset="0.91" stop-color="white" stop-opacity="0.96"/>
<stop offset="1" stop-color="white"/>
</linearGradient>
<linearGradient id="paint1_linear_139_22" x1="703.357" y1="35.2892" x2="1632.81" y2="35.2892" gradientUnits="userSpaceOnUse">
<stop stop-color="white" stop-opacity="0"/>
<stop offset="0.06" stop-color="white" stop-opacity="0.08"/>
<stop offset="0.33" stop-color="white" stop-opacity="0.4"/>
<stop offset="0.57" stop-color="white" stop-opacity="0.66"/>
<stop offset="0.76" stop-color="white" stop-opacity="0.84"/>
<stop offset="0.91" stop-color="white" stop-opacity="0.96"/>
<stop offset="1" stop-color="white"/>
</linearGradient>
</defs>
</svg>
