<svg width="1641" height="49" viewBox="0 0 1641 49" fill="none" xmlns="http://www.w3.org/2000/svg">
<g opacity="0.1">
<path d="M662.273 33.5669C1028.04 33.5669 1324.55 31.8827 1324.55 29.8053C1324.55 27.7278 1028.04 26.0437 662.273 26.0437C296.51 26.0437 0 27.7278 0 29.8053C0 31.8827 296.51 33.5669 662.273 33.5669Z" fill="url(#paint0_linear_139_23)"/>
<path d="M926.436 46.6007C926.436 45.7382 746.913 45.0434 525.453 45.0434C303.993 45.0434 124.47 45.7382 124.47 46.6007C124.47 47.4633 303.993 48.1341 525.453 48.1341C746.913 48.1341 926.436 47.3435 926.436 46.6007Z" fill="url(#paint1_linear_139_23)"/>
<path d="M1640.84 1.53339C1640.84 0.694818 1292.69 0 863.196 0C433.704 0 85.525 0.694818 85.525 1.53339C85.525 2.37197 433.704 3.09073 863.196 3.09073C1292.69 3.09073 1640.84 2.39593 1640.84 1.53339Z" fill="url(#paint2_linear_139_23)"/>
</g>
<defs>
<linearGradient id="paint0_linear_139_23" x1="0" y1="29.8053" x2="1324.55" y2="29.8053" gradientUnits="userSpaceOnUse">
<stop stop-color="white" stop-opacity="0"/>
<stop offset="0.06" stop-color="white" stop-opacity="0.08"/>
<stop offset="0.33" stop-color="white" stop-opacity="0.4"/>
<stop offset="0.57" stop-color="white" stop-opacity="0.66"/>
<stop offset="0.76" stop-color="white" stop-opacity="0.84"/>
<stop offset="0.91" stop-color="white" stop-opacity="0.96"/>
<stop offset="1" stop-color="white"/>
</linearGradient>
<linearGradient id="paint1_linear_139_23" x1="122.765" y1="48.5088" x2="923.755" y2="48.5088" gradientUnits="userSpaceOnUse">
<stop stop-color="white" stop-opacity="0"/>
<stop offset="0.06" stop-color="white" stop-opacity="0.08"/>
<stop offset="0.33" stop-color="white" stop-opacity="0.4"/>
<stop offset="0.57" stop-color="white" stop-opacity="0.66"/>
<stop offset="0.76" stop-color="white" stop-opacity="0.84"/>
<stop offset="0.91" stop-color="white" stop-opacity="0.96"/>
<stop offset="1" stop-color="white"/>
</linearGradient>
<linearGradient id="paint2_linear_139_23" x1="83.8924" y1="3.12522" x2="1637.27" y2="3.12522" gradientUnits="userSpaceOnUse">
<stop stop-color="white" stop-opacity="0"/>
<stop offset="0.06" stop-color="white" stop-opacity="0.08"/>
<stop offset="0.33" stop-color="white" stop-opacity="0.4"/>
<stop offset="0.57" stop-color="white" stop-opacity="0.66"/>
<stop offset="0.76" stop-color="white" stop-opacity="0.84"/>
<stop offset="0.91" stop-color="white" stop-opacity="0.96"/>
<stop offset="1" stop-color="white"/>
</linearGradient>
</defs>
</svg>
