<svg width="721" height="115" viewBox="0 0 721 115" fill="none" xmlns="http://www.w3.org/2000/svg">
<g opacity="0.1">
<path d="M360.1 17.8736C558.977 17.8736 720.199 13.8725 720.199 8.9368C720.199 4.00114 558.977 0 360.1 0C161.222 0 0 4.00114 0 8.9368C0 13.8725 161.222 17.8736 360.1 17.8736Z" fill="url(#paint0_linear_139_24)"/>
<path d="M360.1 114.933C558.977 114.933 720.199 98.9711 720.199 79.2813C720.199 59.5916 558.977 43.6299 360.1 43.6299C161.222 43.6299 0 59.5916 0 79.2813C0 98.9711 161.222 114.933 360.1 114.933Z" fill="url(#paint1_linear_139_24)"/>
</g>
<defs>
<linearGradient id="paint0_linear_139_24" x1="0" y1="8.93682" x2="720.176" y2="8.93682" gradientUnits="userSpaceOnUse">
<stop stop-color="white" stop-opacity="0"/>
<stop offset="0.06" stop-color="white" stop-opacity="0.08"/>
<stop offset="0.33" stop-color="white" stop-opacity="0.4"/>
<stop offset="0.57" stop-color="white" stop-opacity="0.66"/>
<stop offset="0.76" stop-color="white" stop-opacity="0.84"/>
<stop offset="0.91" stop-color="white" stop-opacity="0.96"/>
<stop offset="1" stop-color="white"/>
</linearGradient>
<linearGradient id="paint1_linear_139_24" x1="0" y1="79.2813" x2="720.176" y2="79.2813" gradientUnits="userSpaceOnUse">
<stop stop-color="white" stop-opacity="0"/>
<stop offset="0.06" stop-color="white" stop-opacity="0.08"/>
<stop offset="0.33" stop-color="white" stop-opacity="0.4"/>
<stop offset="0.57" stop-color="white" stop-opacity="0.66"/>
<stop offset="0.76" stop-color="white" stop-opacity="0.84"/>
<stop offset="0.91" stop-color="white" stop-opacity="0.96"/>
<stop offset="1" stop-color="white"/>
</linearGradient>
</defs>
</svg>
