<svg width="1728" height="294" viewBox="0 0 1728 294" fill="none" xmlns="http://www.w3.org/2000/svg">
<g clip-path="url(#clip0_6_576)">
<path d="M1728.02 30.186V294H-62L-30.7335 12.3181C-30.7335 12.3181 51.3489 17.7205 78.7097 32.0779C106.07 46.4352 151.017 46.4352 172.509 46.4352C194.001 46.4352 252.839 57.6604 270.32 47.5703C287.8 37.4802 344.464 26.6965 373.767 26.6965C403.07 26.6965 481.247 35.6724 496.87 42.8406C512.492 50.0088 520.325 66.195 569.177 80.5523C618.03 94.9097 676.678 122.342 688.395 117.507C700.112 112.672 815.424 84.5043 854.502 90.5373C893.58 96.5703 926.81 118.138 948.217 114.585C969.625 111.033 1014.66 128.964 1043.98 119.988C1073.3 111.012 1145.59 97.0118 1159.27 90.5583C1172.95 84.1049 1217.9 80.4893 1243.3 75.1079C1268.69 69.7265 1370.33 51.7745 1378.14 40.9907C1385.95 30.207 1393.76 21.4623 1407.44 19.5493C1421.12 17.6364 1417.21 17.6574 1438.71 12.255C1460.2 6.85264 1481.71 -3.91011 1493.43 1.49229C1505.14 6.89469 1509.77 17.6364 1545.57 12.255C1581.38 6.87366 1602.87 5.08686 1632.13 10.4682C1661.39 15.8496 1728.02 30.186 1728.02 30.186Z" fill="#B52A51"/>
</g>
<defs>
<clipPath id="clip0_6_576">
<rect width="1790" height="294" fill="white" transform="translate(-62)"/>
</clipPath>
</defs>
</svg>
