<svg width="1728" height="415" viewBox="0 0 1728 415" fill="none" xmlns="http://www.w3.org/2000/svg">
<g clip-path="url(#clip0_6_578)">
<path d="M-118.37 8.81547C-105.003 8.13761 -69.1479 45.5411 -40.8861 39.3919C-22.4977 35.4215 -8.28183 29.0303 0.888123 29.8292C10.0581 30.6281 212.064 68.5643 221.986 78.1028C231.908 87.6413 298.111 104.733 315.529 104.733C332.947 104.733 383.454 112.577 398.204 119.67C418.582 129.354 487.405 183.462 547.713 169.372C567.12 164.845 644.24 135.334 672.502 142.403C700.764 149.472 739.675 144.219 776.646 155.815C813.617 167.411 957.013 151.457 980.932 143.71C1004.85 135.963 1132.11 79.1922 1145.14 83.3078C1158.17 87.4234 1208.22 91.6358 1227.82 100.884C1247.42 110.132 1320.41 119.356 1344.26 126.739C1368.11 134.123 1424.75 113.134 1439.96 115.216C1455.17 117.298 1487.83 113.134 1496.54 113.134C1505.24 113.134 1659.07 56.4353 1691.19 66.4096C1723.31 76.3839 1877.99 86.3339 1877.99 86.3339L1881.87 414.153L-215.867 450.225V69.7021C-215.867 69.7021 -134.235 9.61438 -118.37 8.81547Z" fill="#91083D"/>
</g>
<defs>
<clipPath id="clip0_6_578">
<rect width="1968" height="415" fill="white" transform="translate(-151)"/>
</clipPath>
</defs>
</svg>
