<svg width="788" height="28" viewBox="0 0 788 28" fill="none" xmlns="http://www.w3.org/2000/svg">
<g opacity="0.28">
<path d="M0 3.97725C0 1.773 176.22 0 393.587 0C610.953 0 787.197 1.74904 787.197 3.97725C787.197 6.20546 610.977 7.9545 393.587 7.9545C176.196 7.9545 0 6.15754 0 3.97725Z" fill="url(#paint0_linear_139_21)"/>
<path d="M414.316 27.5532C540.828 27.5532 643.387 26.4483 643.387 25.0854C643.387 23.7225 540.828 22.6176 414.316 22.6176C287.803 22.6176 185.244 23.7225 185.244 25.0854C185.244 26.4483 287.803 27.5532 414.316 27.5532Z" fill="url(#paint1_linear_139_21)"/>
</g>
<defs>
<linearGradient id="paint0_linear_139_21" x1="793.67" y1="4.09418" x2="-2.44678" y2="4.09418" gradientUnits="userSpaceOnUse">
<stop stop-color="white" stop-opacity="0"/>
<stop offset="0.06" stop-color="white" stop-opacity="0.08"/>
<stop offset="0.33" stop-color="white" stop-opacity="0.4"/>
<stop offset="0.57" stop-color="white" stop-opacity="0.66"/>
<stop offset="0.76" stop-color="white" stop-opacity="0.84"/>
<stop offset="0.91" stop-color="white" stop-opacity="0.96"/>
<stop offset="1" stop-color="white"/>
</linearGradient>
<linearGradient id="paint1_linear_139_21" x1="651.328" y1="25.3805" x2="195.333" y2="25.3805" gradientUnits="userSpaceOnUse">
<stop stop-color="white" stop-opacity="0"/>
<stop offset="0.06" stop-color="white" stop-opacity="0.08"/>
<stop offset="0.33" stop-color="white" stop-opacity="0.4"/>
<stop offset="0.57" stop-color="white" stop-opacity="0.66"/>
<stop offset="0.76" stop-color="white" stop-opacity="0.84"/>
<stop offset="0.91" stop-color="white" stop-opacity="0.96"/>
<stop offset="1" stop-color="white"/>
</linearGradient>
</defs>
</svg>
