<svg viewBox="0 0 138 36" fill="none" xmlns="http://www.w3.org/2000/svg">
<path d="M10.83 35.4113C8.474 35.4113 6.498 35.0693 4.902 34.3853C3.33133 33.6759 2.128 32.7639 1.292 31.6493C0.481333 30.5092 0.0506667 29.3186 0 28.0772C0 27.8492 0.076 27.6593 0.228 27.5072C0.38 27.3552 0.57 27.2792 0.798 27.2792H4.18C4.50933 27.2792 4.75 27.3552 4.902 27.5072C5.07933 27.6339 5.23133 27.7986 5.358 28.0012C5.51 28.4826 5.80133 28.9639 6.232 29.4452C6.66267 29.9012 7.24533 30.2812 7.98 30.5852C8.74 30.8892 9.69 31.0413 10.83 31.0413C12.654 31.0413 14.0093 30.7372 14.896 30.1292C15.808 29.5212 16.264 28.6979 16.264 27.6593C16.264 26.9246 16.0233 26.3419 15.542 25.9112C15.0607 25.4552 14.3133 25.0499 13.3 24.6952C12.312 24.3152 10.9947 23.9226 9.348 23.5173C7.448 23.0612 5.852 22.5166 4.56 21.8832C3.29333 21.2246 2.33067 20.4013 1.672 19.4132C1.03867 18.4252 0.722 17.1712 0.722 15.6512C0.722 14.1819 1.11467 12.8772 1.9 11.7372C2.71067 10.5972 3.85067 9.69792 5.32 9.03925C6.81467 8.38058 8.588 8.05125 10.64 8.05125C12.2867 8.05125 13.7433 8.27925 15.01 8.73525C16.2767 9.16592 17.328 9.74858 18.164 10.4832C19 11.1926 19.6333 11.9652 20.064 12.8012C20.52 13.6119 20.7607 14.4099 20.786 15.1952C20.786 15.3979 20.71 15.5879 20.558 15.7652C20.4313 15.9172 20.2413 15.9932 19.988 15.9932H16.454C16.2513 15.9932 16.0487 15.9426 15.846 15.8413C15.6433 15.7399 15.4787 15.5499 15.352 15.2712C15.2 14.4859 14.706 13.8146 13.87 13.2572C13.034 12.6999 11.9573 12.4212 10.64 12.4212C9.272 12.4212 8.17 12.6746 7.334 13.1812C6.498 13.6879 6.08 14.4732 6.08 15.5372C6.08 16.2466 6.28267 16.8419 6.688 17.3232C7.11867 17.7792 7.79 18.1846 8.702 18.5392C9.63933 18.8939 10.868 19.2739 12.388 19.6792C14.5413 20.1606 16.302 20.7179 17.67 21.3512C19.038 21.9846 20.0387 22.7952 20.672 23.7832C21.3053 24.7459 21.622 25.9746 21.622 27.4692C21.622 29.1413 21.166 30.5726 20.254 31.7633C19.3673 32.9286 18.1133 33.8279 16.492 34.4613C14.8707 35.0946 12.9833 35.4113 10.83 35.4113Z" fill="white"/>
<path d="M26.8889 35.0312C26.6355 35.0312 26.4202 34.9426 26.2429 34.7653C26.0655 34.5879 25.9769 34.3726 25.9769 34.1193V9.38125C25.9769 9.10258 26.0655 8.87458 26.2429 8.69725C26.4202 8.51992 26.6355 8.43125 26.8889 8.43125H43.6089C43.8875 8.43125 44.1155 8.51992 44.2929 8.69725C44.4702 8.87458 44.5589 9.10258 44.5589 9.38125V11.8892C44.5589 12.1426 44.4702 12.3579 44.2929 12.5352C44.1155 12.7126 43.8875 12.8012 43.6089 12.8012H31.1069V19.5272H42.7729C43.0515 19.5272 43.2795 19.6159 43.4569 19.7932C43.6342 19.9452 43.7229 20.1606 43.7229 20.4392V22.7952C43.7229 23.0739 43.6342 23.3019 43.4569 23.4792C43.2795 23.6313 43.0515 23.7073 42.7729 23.7073H31.1069V30.6612H43.9129C44.1915 30.6612 44.4195 30.7499 44.5969 30.9272C44.7742 31.1046 44.8629 31.3326 44.8629 31.6112V34.1193C44.8629 34.3726 44.7742 34.5879 44.5969 34.7653C44.4195 34.9426 44.1915 35.0312 43.9129 35.0312H26.8889Z" fill="white"/>
<path d="M50.5275 35.0312C50.2742 35.0312 50.0589 34.9426 49.8815 34.7653C49.7042 34.5879 49.6155 34.3726 49.6155 34.1193V9.38125C49.6155 9.10258 49.7042 8.87458 49.8815 8.69725C50.0589 8.51992 50.2742 8.43125 50.5275 8.43125H53.4535C53.8082 8.43125 54.0615 8.51992 54.2135 8.69725C54.3909 8.84925 54.5049 8.96325 54.5555 9.03925L65.4995 26.0632V9.38125C65.4995 9.10258 65.5755 8.87458 65.7275 8.69725C65.9049 8.51992 66.1329 8.43125 66.4115 8.43125H69.6035C69.8822 8.43125 70.1102 8.51992 70.2875 8.69725C70.4649 8.87458 70.5535 9.10258 70.5535 9.38125V34.0812C70.5535 34.3599 70.4649 34.5879 70.2875 34.7653C70.1102 34.9426 69.8949 35.0312 69.6415 35.0312H66.6775C66.3229 35.0312 66.0695 34.9426 65.9175 34.7653C65.7655 34.5879 65.6515 34.4739 65.5755 34.4232L54.6695 17.7792V34.1193C54.6695 34.3726 54.5809 34.5879 54.4035 34.7653C54.2262 34.9426 53.9982 35.0312 53.7195 35.0312H50.5275Z" fill="white"/>
<path d="M85.0707 35.4113C83.7027 35.4113 82.398 35.2466 81.1567 34.9173C79.9407 34.5626 78.8514 34.0306 77.8887 33.3213C76.9261 32.6119 76.1534 31.7379 75.5707 30.6992C75.0134 29.6606 74.722 28.4319 74.6967 27.0133C74.6967 26.7853 74.7727 26.5952 74.9247 26.4432C75.0767 26.2659 75.2667 26.1772 75.4947 26.1772H79.1047C79.4341 26.1772 79.6747 26.2659 79.8267 26.4432C80.0041 26.6206 80.1434 26.8612 80.2447 27.1652C80.3714 28.0772 80.6627 28.8246 81.1187 29.4072C81.5747 29.9646 82.1447 30.3826 82.8287 30.6612C83.5381 30.9146 84.3234 31.0413 85.1847 31.0413C86.7807 31.0413 87.9967 30.5219 88.8327 29.4832C89.6941 28.4446 90.1247 27.0006 90.1247 25.1512V12.9152H77.2427C76.9641 12.9152 76.736 12.8266 76.5587 12.6492C76.4067 12.4719 76.3307 12.2566 76.3307 12.0033V9.34325C76.3307 9.08991 76.4067 8.87458 76.5587 8.69725C76.736 8.51992 76.9641 8.43125 77.2427 8.43125H94.6087C94.8874 8.43125 95.1154 8.51992 95.2927 8.69725C95.4701 8.87458 95.5587 9.10258 95.5587 9.38125V25.3032C95.5587 27.4059 95.1154 29.2172 94.2287 30.7372C93.3674 32.2572 92.1514 33.4226 90.5807 34.2332C89.0354 35.0186 87.1987 35.4113 85.0707 35.4113Z" fill="#3B0017"/>
<path d="M99.0811 35.0312C98.8785 35.0312 98.6885 34.9552 98.5111 34.8032C98.3591 34.6512 98.2831 34.4612 98.2831 34.2332C98.2831 34.1319 98.3085 34.0179 98.3591 33.8913L107.517 9.38125C107.593 9.12791 107.732 8.91258 107.935 8.73525C108.163 8.53258 108.467 8.43125 108.847 8.43125H112.989C113.369 8.43125 113.66 8.53258 113.863 8.73525C114.066 8.91258 114.218 9.12791 114.319 9.38125L123.477 33.8913C123.502 34.0179 123.515 34.1319 123.515 34.2332C123.515 34.4612 123.439 34.6512 123.287 34.8032C123.135 34.9552 122.958 35.0312 122.755 35.0312H119.449C119.094 35.0312 118.828 34.9552 118.651 34.8032C118.499 34.6259 118.398 34.4612 118.347 34.3092L116.561 29.6733H105.275L103.489 34.3092C103.438 34.4612 103.324 34.6259 103.147 34.8032C102.995 34.9552 102.742 35.0312 102.387 35.0312H99.0811ZM106.605 25.3032H115.231L110.899 13.5612L106.605 25.3032Z" fill="#3B0017"/>
<path d="M134.383 4.84453C133.309 2.01328 130.574 0 127.37 0C124.166 0 121.431 2.01094 120.358 4.84219C118.349 5.36953 116.865 7.19766 116.865 9.375C116.865 11.9648 118.963 14.0625 121.551 14.0625H133.18C135.768 14.0625 137.865 11.9648 137.865 9.375C137.865 7.20234 136.386 5.37422 134.383 4.84453Z" fill="#3B0017"/>
</svg>
